<?xml version="1.0" encoding="UTF-8" standalone="no"?>
<!-- Created with Inkscape (http://www.inkscape.org/) -->

<svg
   width="88.056847mm"
   height="27.536396mm"
   viewBox="0 0 88.056847 27.536396"
   version="1.1"
   id="svg2583"
   inkscape:version="1.1.2 (b8e25be833, 2022-02-05)"
   sodipodi:docname="ceq0.svg"
   xmlns:inkscape="http://www.inkscape.org/namespaces/inkscape"
   xmlns:sodipodi="http://sodipodi.sourceforge.net/DTD/sodipodi-0.dtd"
   xmlns="http://www.w3.org/2000/svg"
   xmlns:svg="http://www.w3.org/2000/svg">
  <sodipodi:namedview
     id="namedview2585"
     pagecolor="#ffffff"
     bordercolor="#666666"
     borderopacity="1.0"
     inkscape:pageshadow="2"
     inkscape:pageopacity="0.0"
     inkscape:pagecheckerboard="0"
     inkscape:document-units="mm"
     showgrid="false"
     inkscape:zoom="0.64052329"
     inkscape:cx="230.28046"
     inkscape:cy="-156.90296"
     inkscape:window-width="2560"
     inkscape:window-height="1361"
     inkscape:window-x="-9"
     inkscape:window-y="-9"
     inkscape:window-maximized="1"
     inkscape:current-layer="layer1" />
  <defs
     id="defs2580" />
  <g
     inkscape:label="Layer 1"
     inkscape:groupmode="layer"
     id="layer1"
     transform="translate(-44.539809,-189.74037)">
    <g
       inkscape:label=""
       transform="matrix(2.7579489,0,0,2.7579489,-212.17353,-15.66786)"
       id="g961">
      <g
         id="g7306">
        <g
           style="fill:#000000;fill-opacity:1"
           id="g885">
          <g
             id="use2755"
             transform="translate(91.925003,81.962997)">
            <path
               style="stroke:none"
               d="m 1.15625,2.375 c 0,0.0625 0.046875,0.125 0.109375,0.125 h 2.40625 C 3.734375,2.5 3.78125,2.4375 3.78125,2.375 V 2.203125 c 0,-0.0625 -0.046875,-0.109375 -0.109375,-0.109375 h -0.875 v -9.171875 h 0.875 c 0.0625,0 0.109375,-0.046875 0.109375,-0.109375 v -0.171875 c 0,-0.0625 -0.046875,-0.125 -0.109375,-0.125 h -2.40625 c -0.0625,0 -0.109375,0.0625 -0.109375,0.125 z M 2.390625,-7.078125 V 2.09375 H 1.5625 v -9.171875 z m 0,0"
               id="path3034" />
          </g>
        </g>
        <g
           style="fill:#000000;fill-opacity:1"
           id="g3965">
          <g
             id="use1376"
             transform="translate(95.938004,81.962997)">
            <path
               style="stroke:none"
               d="m 6.546875,-6.6875 c 0,-0.171875 0,-0.328125 -0.171875,-0.328125 0,0 -0.15625,0 -0.171875,0.171875 C 6.171875,-6.5625 5.9375,-6.5625 5.875,-6.5625 c -0.359375,0 -0.703125,-0.140625 -0.90625,-0.234375 -0.5,-0.21875 -0.9375,-0.21875 -1.09375,-0.21875 -1.65625,0 -3.5,1.046875 -3.5,3.59375 0,2.546875 1.796875,3.609375 3.515625,3.609375 0.53125,0 1.25,-0.109375 1.96875,-0.546875 0.453125,-0.28125 0.96875,-0.78125 0.96875,-0.921875 0,-0.140625 -0.15625,-0.203125 -0.203125,-0.203125 -0.078125,0 -0.109375,0.03125 -0.21875,0.140625 -0.578125,0.65625 -1.46875,1.046875 -2.34375,1.046875 -1.546875,0 -1.9375,-1.5625 -1.9375,-3.109375 0,-1.953125 0.71875,-3.265625 1.78125,-3.265625 0.75,0 1.953125,0.734375 2.28125,1.78125 0.03125,0.09375 0.0625,0.203125 0.1875,0.203125 0.171875,0 0.171875,-0.171875 0.171875,-0.34375 z m -0.34375,1.03125 c -0.125,-0.171875 -0.25,-0.3125 -0.5,-0.5625 0.046875,0.015625 0.125,0.015625 0.171875,0.015625 0.109375,0 0.25,-0.03125 0.328125,-0.078125 z M 2.65625,-6.4375 c -0.21875,0.234375 -0.875,1.078125 -0.875,3.03125 0,1 0.140625,2.375 1.046875,3.09375 C 1.1875,-0.84375 0.71875,-2.1875 0.71875,-3.40625 c 0,-1.84375 1,-2.71875 1.9375,-3.046875 z m 0,0"
               id="path3018" />
          </g>
        </g>
        <g
           style="fill:#000000;fill-opacity:1"
           id="g5365">
          <g
             id="use4822"
             transform="translate(103.133,81.962997)">
            <path
               style="stroke:none"
               d="M 1.59375,2.09375 V -7.078125 H 2.4375 V 2.09375 Z m 1.25,0.28125 v -9.734375 c 0,-0.0625 -0.046875,-0.125 -0.109375,-0.125 H 0.34375 c -0.046875,0 -0.109375,0.0625 -0.109375,0.125 V -7.1875 c 0,0.0625 0.0625,0.109375 0.109375,0.109375 H 1.203125 V 2.09375 H 0.34375 c -0.046875,0 -0.109375,0.046875 -0.109375,0.109375 V 2.375 c 0,0.0625 0.0625,0.125 0.109375,0.125 h 2.390625 c 0.0625,0 0.109375,-0.0625 0.109375,-0.125 z m 0,0"
               id="path3022" />
          </g>
        </g>
        <g
           style="fill:#000000;fill-opacity:1"
           id="g4923">
          <g
             id="use6684"
             transform="translate(109.913,81.962997)">
            <path
               style="stroke:none"
               d="m 6.84375,-3.265625 c 0.15625,0 0.34375,0 0.34375,-0.1875 C 7.1875,-3.65625 7,-3.65625 6.859375,-3.65625 h -5.96875 c -0.140625,0 -0.328125,0 -0.328125,0.203125 0,0.1875 0.1875,0.1875 0.328125,0.1875 z m 0.015625,1.9375 c 0.140625,0 0.328125,0 0.328125,-0.203125 0,-0.1875 -0.1875,-0.1875 -0.34375,-0.1875 H 0.890625 c -0.140625,0 -0.328125,0 -0.328125,0.1875 0,0.203125 0.1875,0.203125 0.328125,0.203125 z m 0,0"
               id="path3030" />
          </g>
        </g>
        <g
           style="fill:#000000;fill-opacity:1"
           id="g7981">
          <g
             id="use9876"
             transform="translate(120.43151,81.962997)">
            <path
               style="stroke:none"
               d="m 4.578125,-3.1875 c 0,-0.796875 -0.046875,-1.59375 -0.390625,-2.328125 -0.453125,-0.96875 -1.28125,-1.125 -1.6875,-1.125 -0.609375,0 -1.328125,0.265625 -1.75,1.1875 -0.3125,0.6875 -0.359375,1.46875 -0.359375,2.265625 0,0.75 0.03125,1.640625 0.453125,2.40625 0.421875,0.796875 1.15625,1 1.640625,1 0.53125,0 1.296875,-0.203125 1.734375,-1.15625 0.3125,-0.6875 0.359375,-1.46875 0.359375,-2.25 z M 2.484375,0 C 2.09375,0 1.5,-0.25 1.328125,-1.203125 1.21875,-1.796875 1.21875,-2.71875 1.21875,-3.3125 c 0,-0.640625 0,-1.296875 0.078125,-1.828125 0.1875,-1.1875 0.9375,-1.28125 1.1875,-1.28125 0.328125,0 0.984375,0.1875 1.171875,1.171875 0.109375,0.5625 0.109375,1.3125 0.109375,1.9375 0,0.75 0,1.421875 -0.109375,2.0625 C 3.5,-0.296875 2.9375,0 2.484375,0 Z m 0,0"
               id="path3026" />
          </g>
        </g>
      </g>
    </g>
  </g>
</svg>
