<?xml version="1.0" encoding="UTF-8" standalone="no"?>
<!-- Created with Inkscape (http://www.inkscape.org/) -->

<svg
   width="210mm"
   height="297mm"
   viewBox="0 0 210 297"
   version="1.1"
   id="svg5"
   sodipodi:docname="math.svg"
   inkscape:version="1.1.2 (b8e25be833, 2022-02-05)"
   xmlns:inkscape="http://www.inkscape.org/namespaces/inkscape"
   xmlns:sodipodi="http://sodipodi.sourceforge.net/DTD/sodipodi-0.dtd"
   xmlns:xlink="http://www.w3.org/1999/xlink"
   xmlns="http://www.w3.org/2000/svg"
   xmlns:svg="http://www.w3.org/2000/svg">
  <sodipodi:namedview
     id="namedview7"
     pagecolor="#ffffff"
     bordercolor="#666666"
     borderopacity="1.0"
     inkscape:pageshadow="2"
     inkscape:pageopacity="0.0"
     inkscape:pagecheckerboard="0"
     inkscape:document-units="mm"
     showgrid="false"
     inkscape:zoom="0.64052329"
     inkscape:cx="397.33138"
     inkscape:cy="561.25984"
     inkscape:window-width="2560"
     inkscape:window-height="1361"
     inkscape:window-x="2551"
     inkscape:window-y="-9"
     inkscape:window-maximized="1"
     inkscape:current-layer="layer1" />
  <defs
     id="defs2">
    <g
       id="g7724">
      <symbol
         overflow="visible"
         id="symbol4054">
        <path
           style="stroke:none;"
           d=""
           id="path8215" />
      </symbol>
      <symbol
         overflow="visible"
         id="symbol6766">
        <path
           style="stroke:none;"
           d="M 1.15625 2.375 C 1.15625 2.4375 1.203125 2.5 1.265625 2.5 L 3.671875 2.5 C 3.734375 2.5 3.78125 2.4375 3.78125 2.375 L 3.78125 2.203125 C 3.78125 2.140625 3.734375 2.09375 3.671875 2.09375 L 2.796875 2.09375 L 2.796875 -7.078125 L 3.671875 -7.078125 C 3.734375 -7.078125 3.78125 -7.125 3.78125 -7.1875 L 3.78125 -7.359375 C 3.78125 -7.421875 3.734375 -7.484375 3.671875 -7.484375 L 1.265625 -7.484375 C 1.203125 -7.484375 1.15625 -7.421875 1.15625 -7.359375 Z M 2.390625 -7.078125 L 2.390625 2.09375 L 1.5625 2.09375 L 1.5625 -7.078125 Z M 2.390625 -7.078125 "
           id="path2251" />
      </symbol>
      <symbol
         overflow="visible"
         id="symbol4660">
        <path
           style="stroke:none;"
           d="M 1.59375 2.09375 L 1.59375 -7.078125 L 2.4375 -7.078125 L 2.4375 2.09375 Z M 2.84375 2.375 L 2.84375 -7.359375 C 2.84375 -7.421875 2.796875 -7.484375 2.734375 -7.484375 L 0.34375 -7.484375 C 0.296875 -7.484375 0.234375 -7.421875 0.234375 -7.359375 L 0.234375 -7.1875 C 0.234375 -7.125 0.296875 -7.078125 0.34375 -7.078125 L 1.203125 -7.078125 L 1.203125 2.09375 L 0.34375 2.09375 C 0.296875 2.09375 0.234375 2.140625 0.234375 2.203125 L 0.234375 2.375 C 0.234375 2.4375 0.296875 2.5 0.34375 2.5 L 2.734375 2.5 C 2.796875 2.5 2.84375 2.4375 2.84375 2.375 Z M 2.84375 2.375 "
           id="path7234" />
      </symbol>
      <symbol
         overflow="visible"
         id="symbol8126">
        <path
           style="stroke:none;"
           d=""
           id="path2506" />
      </symbol>
      <symbol
         overflow="visible"
         id="symbol3068">
        <path
           style="stroke:none;"
           d="M 6.546875 -6.6875 C 6.546875 -6.859375 6.546875 -7.015625 6.375 -7.015625 C 6.375 -7.015625 6.21875 -7.015625 6.203125 -6.84375 C 6.171875 -6.5625 5.9375 -6.5625 5.875 -6.5625 C 5.515625 -6.5625 5.171875 -6.703125 4.96875 -6.796875 C 4.46875 -7.015625 4.03125 -7.015625 3.875 -7.015625 C 2.21875 -7.015625 0.375 -5.96875 0.375 -3.421875 C 0.375 -0.875 2.171875 0.1875 3.890625 0.1875 C 4.421875 0.1875 5.140625 0.078125 5.859375 -0.359375 C 6.3125 -0.640625 6.828125 -1.140625 6.828125 -1.28125 C 6.828125 -1.421875 6.671875 -1.484375 6.625 -1.484375 C 6.546875 -1.484375 6.515625 -1.453125 6.40625 -1.34375 C 5.828125 -0.6875 4.9375 -0.296875 4.0625 -0.296875 C 2.515625 -0.296875 2.125 -1.859375 2.125 -3.40625 C 2.125 -5.359375 2.84375 -6.671875 3.90625 -6.671875 C 4.65625 -6.671875 5.859375 -5.9375 6.1875 -4.890625 C 6.21875 -4.796875 6.25 -4.6875 6.375 -4.6875 C 6.546875 -4.6875 6.546875 -4.859375 6.546875 -5.03125 Z M 6.203125 -5.65625 C 6.078125 -5.828125 5.953125 -5.96875 5.703125 -6.21875 C 5.75 -6.203125 5.828125 -6.203125 5.875 -6.203125 C 5.984375 -6.203125 6.125 -6.234375 6.203125 -6.28125 Z M 2.65625 -6.4375 C 2.4375 -6.203125 1.78125 -5.359375 1.78125 -3.40625 C 1.78125 -2.40625 1.921875 -1.03125 2.828125 -0.3125 C 1.1875 -0.84375 0.71875 -2.1875 0.71875 -3.40625 C 0.71875 -5.25 1.71875 -6.125 2.65625 -6.453125 Z M 2.65625 -6.4375 "
           id="path3431" />
      </symbol>
    </g>
    <g
       id="g966">
      <symbol
         overflow="visible"
         id="symbol4393">
        <path
           style="stroke:none;"
           d=""
           id="path8783" />
      </symbol>
      <symbol
         overflow="visible"
         id="symbol275">
        <path
           style="stroke:none;"
           d="M 1.15625 2.375 C 1.15625 2.4375 1.203125 2.5 1.265625 2.5 L 3.671875 2.5 C 3.734375 2.5 3.78125 2.4375 3.78125 2.375 L 3.78125 2.203125 C 3.78125 2.140625 3.734375 2.09375 3.671875 2.09375 L 2.796875 2.09375 L 2.796875 -7.078125 L 3.671875 -7.078125 C 3.734375 -7.078125 3.78125 -7.125 3.78125 -7.1875 L 3.78125 -7.359375 C 3.78125 -7.421875 3.734375 -7.484375 3.671875 -7.484375 L 1.265625 -7.484375 C 1.203125 -7.484375 1.15625 -7.421875 1.15625 -7.359375 Z M 2.390625 -7.078125 L 2.390625 2.09375 L 1.5625 2.09375 L 1.5625 -7.078125 Z M 2.390625 -7.078125 "
           id="path3811" />
      </symbol>
      <symbol
         overflow="visible"
         id="symbol1510">
        <path
           style="stroke:none;"
           d="M 1.59375 2.09375 L 1.59375 -7.078125 L 2.4375 -7.078125 L 2.4375 2.09375 Z M 2.84375 2.375 L 2.84375 -7.359375 C 2.84375 -7.421875 2.796875 -7.484375 2.734375 -7.484375 L 0.34375 -7.484375 C 0.296875 -7.484375 0.234375 -7.421875 0.234375 -7.359375 L 0.234375 -7.1875 C 0.234375 -7.125 0.296875 -7.078125 0.34375 -7.078125 L 1.203125 -7.078125 L 1.203125 2.09375 L 0.34375 2.09375 C 0.296875 2.09375 0.234375 2.140625 0.234375 2.203125 L 0.234375 2.375 C 0.234375 2.4375 0.296875 2.5 0.34375 2.5 L 2.734375 2.5 C 2.796875 2.5 2.84375 2.4375 2.84375 2.375 Z M 2.84375 2.375 "
           id="path3605" />
      </symbol>
      <symbol
         overflow="visible"
         id="symbol259">
        <path
           style="stroke:none;"
           d=""
           id="path2924" />
      </symbol>
      <symbol
         overflow="visible"
         id="symbol4713">
        <path
           style="stroke:none;"
           d="M 6.546875 -6.6875 C 6.546875 -6.859375 6.546875 -7.015625 6.375 -7.015625 C 6.375 -7.015625 6.21875 -7.015625 6.203125 -6.84375 C 6.171875 -6.5625 5.9375 -6.5625 5.875 -6.5625 C 5.515625 -6.5625 5.171875 -6.703125 4.96875 -6.796875 C 4.46875 -7.015625 4.03125 -7.015625 3.875 -7.015625 C 2.21875 -7.015625 0.375 -5.96875 0.375 -3.421875 C 0.375 -0.875 2.171875 0.1875 3.890625 0.1875 C 4.421875 0.1875 5.140625 0.078125 5.859375 -0.359375 C 6.3125 -0.640625 6.828125 -1.140625 6.828125 -1.28125 C 6.828125 -1.421875 6.671875 -1.484375 6.625 -1.484375 C 6.546875 -1.484375 6.515625 -1.453125 6.40625 -1.34375 C 5.828125 -0.6875 4.9375 -0.296875 4.0625 -0.296875 C 2.515625 -0.296875 2.125 -1.859375 2.125 -3.40625 C 2.125 -5.359375 2.84375 -6.671875 3.90625 -6.671875 C 4.65625 -6.671875 5.859375 -5.9375 6.1875 -4.890625 C 6.21875 -4.796875 6.25 -4.6875 6.375 -4.6875 C 6.546875 -4.6875 6.546875 -4.859375 6.546875 -5.03125 Z M 6.203125 -5.65625 C 6.078125 -5.828125 5.953125 -5.96875 5.703125 -6.21875 C 5.75 -6.203125 5.828125 -6.203125 5.875 -6.203125 C 5.984375 -6.203125 6.125 -6.234375 6.203125 -6.28125 Z M 2.65625 -6.4375 C 2.4375 -6.203125 1.78125 -5.359375 1.78125 -3.40625 C 1.78125 -2.40625 1.921875 -1.03125 2.828125 -0.3125 C 1.1875 -0.84375 0.71875 -2.1875 0.71875 -3.40625 C 0.71875 -5.25 1.71875 -6.125 2.65625 -6.453125 Z M 2.65625 -6.4375 "
           id="path9408" />
      </symbol>
      <symbol
         overflow="visible"
         id="symbol3518">
        <path
           style="stroke:none;"
           d=""
           id="path2279" />
      </symbol>
      <symbol
         overflow="visible"
         id="symbol7240">
        <path
           style="stroke:none;"
           d="M 6.84375 -3.265625 C 7 -3.265625 7.1875 -3.265625 7.1875 -3.453125 C 7.1875 -3.65625 7 -3.65625 6.859375 -3.65625 L 0.890625 -3.65625 C 0.75 -3.65625 0.5625 -3.65625 0.5625 -3.453125 C 0.5625 -3.265625 0.75 -3.265625 0.890625 -3.265625 Z M 6.859375 -1.328125 C 7 -1.328125 7.1875 -1.328125 7.1875 -1.53125 C 7.1875 -1.71875 7 -1.71875 6.84375 -1.71875 L 0.890625 -1.71875 C 0.75 -1.71875 0.5625 -1.71875 0.5625 -1.53125 C 0.5625 -1.328125 0.75 -1.328125 0.890625 -1.328125 Z M 6.859375 -1.328125 "
           id="path3863" />
      </symbol>
      <symbol
         overflow="visible"
         id="symbol4636">
        <path
           style="stroke:none;"
           d="M 4.578125 -3.1875 C 4.578125 -3.984375 4.53125 -4.78125 4.1875 -5.515625 C 3.734375 -6.484375 2.90625 -6.640625 2.5 -6.640625 C 1.890625 -6.640625 1.171875 -6.375 0.75 -5.453125 C 0.4375 -4.765625 0.390625 -3.984375 0.390625 -3.1875 C 0.390625 -2.4375 0.421875 -1.546875 0.84375 -0.78125 C 1.265625 0.015625 2 0.21875 2.484375 0.21875 C 3.015625 0.21875 3.78125 0.015625 4.21875 -0.9375 C 4.53125 -1.625 4.578125 -2.40625 4.578125 -3.1875 Z M 2.484375 0 C 2.09375 0 1.5 -0.25 1.328125 -1.203125 C 1.21875 -1.796875 1.21875 -2.71875 1.21875 -3.3125 C 1.21875 -3.953125 1.21875 -4.609375 1.296875 -5.140625 C 1.484375 -6.328125 2.234375 -6.421875 2.484375 -6.421875 C 2.8125 -6.421875 3.46875 -6.234375 3.65625 -5.25 C 3.765625 -4.6875 3.765625 -3.9375 3.765625 -3.3125 C 3.765625 -2.5625 3.765625 -1.890625 3.65625 -1.25 C 3.5 -0.296875 2.9375 0 2.484375 0 Z M 2.484375 0 "
           id="path5742" />
      </symbol>
    </g>
    <g
       id="g4805">
      <symbol
         overflow="visible"
         id="symbol28">
        <path
           style="stroke:none;"
           d=""
           id="path435" />
      </symbol>
      <symbol
         overflow="visible"
         id="symbol1944">
        <path
           style="stroke:none;"
           d="M 1.15625 2.375 C 1.15625 2.4375 1.203125 2.5 1.265625 2.5 L 3.671875 2.5 C 3.734375 2.5 3.78125 2.4375 3.78125 2.375 L 3.78125 2.203125 C 3.78125 2.140625 3.734375 2.09375 3.671875 2.09375 L 2.796875 2.09375 L 2.796875 -7.078125 L 3.671875 -7.078125 C 3.734375 -7.078125 3.78125 -7.125 3.78125 -7.1875 L 3.78125 -7.359375 C 3.78125 -7.421875 3.734375 -7.484375 3.671875 -7.484375 L 1.265625 -7.484375 C 1.203125 -7.484375 1.15625 -7.421875 1.15625 -7.359375 Z M 2.390625 -7.078125 L 2.390625 2.09375 L 1.5625 2.09375 L 1.5625 -7.078125 Z M 2.390625 -7.078125 "
           id="path5914" />
      </symbol>
      <symbol
         overflow="visible"
         id="symbol6838">
        <path
           style="stroke:none;"
           d="M 1.59375 2.09375 L 1.59375 -7.078125 L 2.4375 -7.078125 L 2.4375 2.09375 Z M 2.84375 2.375 L 2.84375 -7.359375 C 2.84375 -7.421875 2.796875 -7.484375 2.734375 -7.484375 L 0.34375 -7.484375 C 0.296875 -7.484375 0.234375 -7.421875 0.234375 -7.359375 L 0.234375 -7.1875 C 0.234375 -7.125 0.296875 -7.078125 0.34375 -7.078125 L 1.203125 -7.078125 L 1.203125 2.09375 L 0.34375 2.09375 C 0.296875 2.09375 0.234375 2.140625 0.234375 2.203125 L 0.234375 2.375 C 0.234375 2.4375 0.296875 2.5 0.34375 2.5 L 2.734375 2.5 C 2.796875 2.5 2.84375 2.4375 2.84375 2.375 Z M 2.84375 2.375 "
           id="path377" />
      </symbol>
      <symbol
         overflow="visible"
         id="symbol2636">
        <path
           style="stroke:none;"
           d=""
           id="path3219" />
      </symbol>
      <symbol
         overflow="visible"
         id="symbol2740">
        <path
           style="stroke:none;"
           d="M 6.546875 -6.6875 C 6.546875 -6.859375 6.546875 -7.015625 6.375 -7.015625 C 6.375 -7.015625 6.21875 -7.015625 6.203125 -6.84375 C 6.171875 -6.5625 5.9375 -6.5625 5.875 -6.5625 C 5.515625 -6.5625 5.171875 -6.703125 4.96875 -6.796875 C 4.46875 -7.015625 4.03125 -7.015625 3.875 -7.015625 C 2.21875 -7.015625 0.375 -5.96875 0.375 -3.421875 C 0.375 -0.875 2.171875 0.1875 3.890625 0.1875 C 4.421875 0.1875 5.140625 0.078125 5.859375 -0.359375 C 6.3125 -0.640625 6.828125 -1.140625 6.828125 -1.28125 C 6.828125 -1.421875 6.671875 -1.484375 6.625 -1.484375 C 6.546875 -1.484375 6.515625 -1.453125 6.40625 -1.34375 C 5.828125 -0.6875 4.9375 -0.296875 4.0625 -0.296875 C 2.515625 -0.296875 2.125 -1.859375 2.125 -3.40625 C 2.125 -5.359375 2.84375 -6.671875 3.90625 -6.671875 C 4.65625 -6.671875 5.859375 -5.9375 6.1875 -4.890625 C 6.21875 -4.796875 6.25 -4.6875 6.375 -4.6875 C 6.546875 -4.6875 6.546875 -4.859375 6.546875 -5.03125 Z M 6.203125 -5.65625 C 6.078125 -5.828125 5.953125 -5.96875 5.703125 -6.21875 C 5.75 -6.203125 5.828125 -6.203125 5.875 -6.203125 C 5.984375 -6.203125 6.125 -6.234375 6.203125 -6.28125 Z M 2.65625 -6.4375 C 2.4375 -6.203125 1.78125 -5.359375 1.78125 -3.40625 C 1.78125 -2.40625 1.921875 -1.03125 2.828125 -0.3125 C 1.1875 -0.84375 0.71875 -2.1875 0.71875 -3.40625 C 0.71875 -5.25 1.71875 -6.125 2.65625 -6.453125 Z M 2.65625 -6.4375 "
           id="path9993" />
      </symbol>
      <symbol
         overflow="visible"
         id="symbol4107">
        <path
           style="stroke:none;"
           d=""
           id="path5741" />
      </symbol>
      <symbol
         overflow="visible"
         id="symbol9626">
        <path
           style="stroke:none;"
           d="M 6.28125 -6.75 C 6.359375 -6.890625 6.359375 -6.90625 6.359375 -6.9375 C 6.359375 -7.015625 6.296875 -7.140625 6.15625 -7.140625 C 6.046875 -7.140625 6.015625 -7.078125 5.9375 -6.9375 L 1.46875 1.765625 C 1.390625 1.90625 1.390625 1.921875 1.390625 1.953125 C 1.390625 2.03125 1.453125 2.15625 1.578125 2.15625 C 1.703125 2.15625 1.734375 2.09375 1.796875 1.953125 Z M 6.28125 -6.75 "
           id="path3148" />
      </symbol>
      <symbol
         overflow="visible"
         id="symbol3130">
        <path
           style="stroke:none;"
           d=""
           id="path2720" />
      </symbol>
      <symbol
         overflow="visible"
         id="symbol1335">
        <path
           style="stroke:none;"
           d="M 6.84375 -3.265625 C 7 -3.265625 7.1875 -3.265625 7.1875 -3.453125 C 7.1875 -3.65625 7 -3.65625 6.859375 -3.65625 L 0.890625 -3.65625 C 0.75 -3.65625 0.5625 -3.65625 0.5625 -3.453125 C 0.5625 -3.265625 0.75 -3.265625 0.890625 -3.265625 Z M 6.859375 -1.328125 C 7 -1.328125 7.1875 -1.328125 7.1875 -1.53125 C 7.1875 -1.71875 7 -1.71875 6.84375 -1.71875 L 0.890625 -1.71875 C 0.75 -1.71875 0.5625 -1.71875 0.5625 -1.53125 C 0.5625 -1.328125 0.75 -1.328125 0.890625 -1.328125 Z M 6.859375 -1.328125 "
           id="path4443" />
      </symbol>
      <symbol
         overflow="visible"
         id="symbol5881">
        <path
           style="stroke:none;"
           d="M 4.578125 -3.1875 C 4.578125 -3.984375 4.53125 -4.78125 4.1875 -5.515625 C 3.734375 -6.484375 2.90625 -6.640625 2.5 -6.640625 C 1.890625 -6.640625 1.171875 -6.375 0.75 -5.453125 C 0.4375 -4.765625 0.390625 -3.984375 0.390625 -3.1875 C 0.390625 -2.4375 0.421875 -1.546875 0.84375 -0.78125 C 1.265625 0.015625 2 0.21875 2.484375 0.21875 C 3.015625 0.21875 3.78125 0.015625 4.21875 -0.9375 C 4.53125 -1.625 4.578125 -2.40625 4.578125 -3.1875 Z M 2.484375 0 C 2.09375 0 1.5 -0.25 1.328125 -1.203125 C 1.21875 -1.796875 1.21875 -2.71875 1.21875 -3.3125 C 1.21875 -3.953125 1.21875 -4.609375 1.296875 -5.140625 C 1.484375 -6.328125 2.234375 -6.421875 2.484375 -6.421875 C 2.8125 -6.421875 3.46875 -6.234375 3.65625 -5.25 C 3.765625 -4.6875 3.765625 -3.9375 3.765625 -3.3125 C 3.765625 -2.5625 3.765625 -1.890625 3.65625 -1.25 C 3.5 -0.296875 2.9375 0 2.484375 0 Z M 2.484375 0 "
           id="path9912" />
      </symbol>
    </g>
    <g
       id="g723">
      <symbol
         overflow="visible"
         id="symbol8712">
        <path
           style="stroke:none;"
           d=""
           id="path4446" />
      </symbol>
      <symbol
         overflow="visible"
         id="symbol4639">
        <path
           style="stroke:none;"
           d="M 1.15625 2.375 C 1.15625 2.4375 1.203125 2.5 1.265625 2.5 L 3.671875 2.5 C 3.734375 2.5 3.78125 2.4375 3.78125 2.375 L 3.78125 2.203125 C 3.78125 2.140625 3.734375 2.09375 3.671875 2.09375 L 2.796875 2.09375 L 2.796875 -7.078125 L 3.671875 -7.078125 C 3.734375 -7.078125 3.78125 -7.125 3.78125 -7.1875 L 3.78125 -7.359375 C 3.78125 -7.421875 3.734375 -7.484375 3.671875 -7.484375 L 1.265625 -7.484375 C 1.203125 -7.484375 1.15625 -7.421875 1.15625 -7.359375 Z M 2.390625 -7.078125 L 2.390625 2.09375 L 1.5625 2.09375 L 1.5625 -7.078125 Z M 2.390625 -7.078125 "
           id="path3150" />
      </symbol>
      <symbol
         overflow="visible"
         id="symbol9255">
        <path
           style="stroke:none;"
           d="M 1.59375 2.09375 L 1.59375 -7.078125 L 2.4375 -7.078125 L 2.4375 2.09375 Z M 2.84375 2.375 L 2.84375 -7.359375 C 2.84375 -7.421875 2.796875 -7.484375 2.734375 -7.484375 L 0.34375 -7.484375 C 0.296875 -7.484375 0.234375 -7.421875 0.234375 -7.359375 L 0.234375 -7.1875 C 0.234375 -7.125 0.296875 -7.078125 0.34375 -7.078125 L 1.203125 -7.078125 L 1.203125 2.09375 L 0.34375 2.09375 C 0.296875 2.09375 0.234375 2.140625 0.234375 2.203125 L 0.234375 2.375 C 0.234375 2.4375 0.296875 2.5 0.34375 2.5 L 2.734375 2.5 C 2.796875 2.5 2.84375 2.4375 2.84375 2.375 Z M 2.84375 2.375 "
           id="path720" />
      </symbol>
      <symbol
         overflow="visible"
         id="symbol669">
        <path
           style="stroke:none;"
           d=""
           id="path3116" />
      </symbol>
      <symbol
         overflow="visible"
         id="symbol4628">
        <path
           style="stroke:none;"
           d="M 0.453125 1.21875 C 0.375 1.5625 0.34375 1.625 -0.09375 1.625 C -0.203125 1.625 -0.3125 1.625 -0.3125 1.8125 C -0.3125 1.890625 -0.265625 1.9375 -0.1875 1.9375 C 0.078125 1.9375 0.375 1.90625 0.640625 1.90625 C 0.984375 1.90625 1.3125 1.9375 1.640625 1.9375 C 1.6875 1.9375 1.8125 1.9375 1.8125 1.734375 C 1.8125 1.625 1.71875 1.625 1.578125 1.625 C 1.078125 1.625 1.078125 1.5625 1.078125 1.46875 C 1.078125 1.34375 1.5 -0.28125 1.5625 -0.53125 C 1.6875 -0.234375 1.96875 0.109375 2.484375 0.109375 C 3.640625 0.109375 4.890625 -1.34375 4.890625 -2.8125 C 4.890625 -3.75 4.3125 -4.40625 3.5625 -4.40625 C 3.0625 -4.40625 2.578125 -4.046875 2.25 -3.65625 C 2.15625 -4.203125 1.71875 -4.40625 1.359375 -4.40625 C 0.890625 -4.40625 0.703125 -4.015625 0.625 -3.84375 C 0.4375 -3.5 0.3125 -2.90625 0.3125 -2.875 C 0.3125 -2.765625 0.40625 -2.765625 0.421875 -2.765625 C 0.53125 -2.765625 0.53125 -2.78125 0.59375 -3 C 0.765625 -3.703125 0.96875 -4.1875 1.328125 -4.1875 C 1.5 -4.1875 1.640625 -4.109375 1.640625 -3.734375 C 1.640625 -3.5 1.609375 -3.390625 1.5625 -3.21875 Z M 2.203125 -3.109375 C 2.265625 -3.375 2.546875 -3.65625 2.71875 -3.8125 C 3.078125 -4.109375 3.359375 -4.1875 3.53125 -4.1875 C 3.921875 -4.1875 4.171875 -3.84375 4.171875 -3.25 C 4.171875 -2.65625 3.84375 -1.515625 3.65625 -1.140625 C 3.3125 -0.4375 2.84375 -0.109375 2.46875 -0.109375 C 1.8125 -0.109375 1.6875 -0.9375 1.6875 -1 C 1.6875 -1.015625 1.6875 -1.03125 1.71875 -1.15625 Z M 2.203125 -3.109375 "
           id="path4897" />
      </symbol>
      <symbol
         overflow="visible"
         id="symbol696">
        <path
           style="stroke:none;"
           d=""
           id="path8849" />
      </symbol>
      <symbol
         overflow="visible"
         id="symbol649">
        <path
           style="stroke:none;"
           d="M 6.28125 -6.75 C 6.359375 -6.890625 6.359375 -6.90625 6.359375 -6.9375 C 6.359375 -7.015625 6.296875 -7.140625 6.15625 -7.140625 C 6.046875 -7.140625 6.015625 -7.078125 5.9375 -6.9375 L 1.46875 1.765625 C 1.390625 1.90625 1.390625 1.921875 1.390625 1.953125 C 1.390625 2.03125 1.453125 2.15625 1.578125 2.15625 C 1.703125 2.15625 1.734375 2.09375 1.796875 1.953125 Z M 6.28125 -6.75 "
           id="path264" />
      </symbol>
      <symbol
         overflow="visible"
         id="symbol8075">
        <path
           style="stroke:none;"
           d=""
           id="path6630" />
      </symbol>
      <symbol
         overflow="visible"
         id="symbol8010">
        <path
           style="stroke:none;"
           d="M 6.84375 -3.265625 C 7 -3.265625 7.1875 -3.265625 7.1875 -3.453125 C 7.1875 -3.65625 7 -3.65625 6.859375 -3.65625 L 0.890625 -3.65625 C 0.75 -3.65625 0.5625 -3.65625 0.5625 -3.453125 C 0.5625 -3.265625 0.75 -3.265625 0.890625 -3.265625 Z M 6.859375 -1.328125 C 7 -1.328125 7.1875 -1.328125 7.1875 -1.53125 C 7.1875 -1.71875 7 -1.71875 6.84375 -1.71875 L 0.890625 -1.71875 C 0.75 -1.71875 0.5625 -1.71875 0.5625 -1.53125 C 0.5625 -1.328125 0.75 -1.328125 0.890625 -1.328125 Z M 6.859375 -1.328125 "
           id="path84" />
      </symbol>
      <symbol
         overflow="visible"
         id="symbol400">
        <path
           style="stroke:none;"
           d="M 4.578125 -3.1875 C 4.578125 -3.984375 4.53125 -4.78125 4.1875 -5.515625 C 3.734375 -6.484375 2.90625 -6.640625 2.5 -6.640625 C 1.890625 -6.640625 1.171875 -6.375 0.75 -5.453125 C 0.4375 -4.765625 0.390625 -3.984375 0.390625 -3.1875 C 0.390625 -2.4375 0.421875 -1.546875 0.84375 -0.78125 C 1.265625 0.015625 2 0.21875 2.484375 0.21875 C 3.015625 0.21875 3.78125 0.015625 4.21875 -0.9375 C 4.53125 -1.625 4.578125 -2.40625 4.578125 -3.1875 Z M 2.484375 0 C 2.09375 0 1.5 -0.25 1.328125 -1.203125 C 1.21875 -1.796875 1.21875 -2.71875 1.21875 -3.3125 C 1.21875 -3.953125 1.21875 -4.609375 1.296875 -5.140625 C 1.484375 -6.328125 2.234375 -6.421875 2.484375 -6.421875 C 2.8125 -6.421875 3.46875 -6.234375 3.65625 -5.25 C 3.765625 -4.6875 3.765625 -3.9375 3.765625 -3.3125 C 3.765625 -2.5625 3.765625 -1.890625 3.65625 -1.25 C 3.5 -0.296875 2.9375 0 2.484375 0 Z M 2.484375 0 "
           id="path2161" />
      </symbol>
    </g>
    <g
       id="g3865">
      <symbol
         overflow="visible"
         id="symbol5642">
        <path
           style="stroke:none;"
           d=""
           id="path7685" />
      </symbol>
      <symbol
         overflow="visible"
         id="symbol4222">
        <path
           style="stroke:none;"
           d="M 1.15625 2.375 C 1.15625 2.4375 1.203125 2.5 1.265625 2.5 L 3.671875 2.5 C 3.734375 2.5 3.78125 2.4375 3.78125 2.375 L 3.78125 2.203125 C 3.78125 2.140625 3.734375 2.09375 3.671875 2.09375 L 2.796875 2.09375 L 2.796875 -7.078125 L 3.671875 -7.078125 C 3.734375 -7.078125 3.78125 -7.125 3.78125 -7.1875 L 3.78125 -7.359375 C 3.78125 -7.421875 3.734375 -7.484375 3.671875 -7.484375 L 1.265625 -7.484375 C 1.203125 -7.484375 1.15625 -7.421875 1.15625 -7.359375 Z M 2.390625 -7.078125 L 2.390625 2.09375 L 1.5625 2.09375 L 1.5625 -7.078125 Z M 2.390625 -7.078125 "
           id="path3926" />
      </symbol>
      <symbol
         overflow="visible"
         id="symbol4531">
        <path
           style="stroke:none;"
           d="M 1.59375 2.09375 L 1.59375 -7.078125 L 2.4375 -7.078125 L 2.4375 2.09375 Z M 2.84375 2.375 L 2.84375 -7.359375 C 2.84375 -7.421875 2.796875 -7.484375 2.734375 -7.484375 L 0.34375 -7.484375 C 0.296875 -7.484375 0.234375 -7.421875 0.234375 -7.359375 L 0.234375 -7.1875 C 0.234375 -7.125 0.296875 -7.078125 0.34375 -7.078125 L 1.203125 -7.078125 L 1.203125 2.09375 L 0.34375 2.09375 C 0.296875 2.09375 0.234375 2.140625 0.234375 2.203125 L 0.234375 2.375 C 0.234375 2.4375 0.296875 2.5 0.34375 2.5 L 2.734375 2.5 C 2.796875 2.5 2.84375 2.4375 2.84375 2.375 Z M 2.84375 2.375 "
           id="path2520" />
      </symbol>
      <symbol
         overflow="visible"
         id="symbol9685">
        <path
           style="stroke:none;"
           d=""
           id="path8087" />
      </symbol>
      <symbol
         overflow="visible"
         id="symbol8610">
        <path
           style="stroke:none;"
           d="M 0.515625 1.28125 C 0.484375 1.421875 0.46875 1.4375 0.453125 1.453125 C 0.40625 1.46875 0.296875 1.46875 0.203125 1.46875 C 0.03125 1.46875 -0.15625 1.46875 -0.15625 1.75 C -0.15625 1.859375 -0.0625 1.9375 0.046875 1.9375 C 0.328125 1.9375 0.65625 1.90625 0.953125 1.90625 C 1.3125 1.90625 1.6875 1.9375 2.03125 1.9375 C 2.09375 1.9375 2.28125 1.9375 2.28125 1.640625 C 2.28125 1.46875 2.125 1.46875 2.03125 1.46875 C 1.890625 1.46875 1.71875 1.46875 1.59375 1.453125 L 2.03125 -0.28125 C 2.171875 -0.140625 2.5 0.078125 3.03125 0.078125 C 4.765625 0.078125 5.84375 -1.5 5.84375 -2.859375 C 5.84375 -4.09375 4.921875 -4.5 4.09375 -4.5 C 3.390625 -4.5 2.875 -4.109375 2.71875 -3.96875 C 2.328125 -4.5 1.671875 -4.5 1.5625 -4.5 C 1.203125 -4.5 0.90625 -4.296875 0.703125 -3.9375 C 0.453125 -3.53125 0.3125 -3 0.3125 -2.953125 C 0.3125 -2.8125 0.46875 -2.8125 0.5625 -2.8125 C 0.671875 -2.8125 0.703125 -2.8125 0.75 -2.859375 C 0.78125 -2.875 0.78125 -2.90625 0.84375 -3.15625 C 1.03125 -3.953125 1.265625 -4.140625 1.515625 -4.140625 C 1.625 -4.140625 1.75 -4.109375 1.75 -3.78125 C 1.75 -3.625 1.71875 -3.484375 1.6875 -3.34375 Z M 2.8125 -3.5 C 3.09375 -3.84375 3.5625 -4.140625 4.046875 -4.140625 C 4.671875 -4.140625 4.71875 -3.609375 4.71875 -3.390625 C 4.71875 -2.875 4.375 -1.640625 4.21875 -1.25 C 3.90625 -0.53125 3.421875 -0.28125 3.015625 -0.28125 C 2.421875 -0.28125 2.1875 -0.75 2.1875 -0.859375 L 2.203125 -1 Z M 2.8125 -3.5 "
           id="path7384" />
      </symbol>
      <symbol
         overflow="visible"
         id="symbol44">
        <path
           style="stroke:none;"
           d=""
           id="path6990" />
      </symbol>
      <symbol
         overflow="visible"
         id="symbol6749">
        <path
           style="stroke:none;"
           d="M 6.28125 -6.75 C 6.359375 -6.890625 6.359375 -6.90625 6.359375 -6.9375 C 6.359375 -7.015625 6.296875 -7.140625 6.15625 -7.140625 C 6.046875 -7.140625 6.015625 -7.078125 5.9375 -6.9375 L 1.46875 1.765625 C 1.390625 1.90625 1.390625 1.921875 1.390625 1.953125 C 1.390625 2.03125 1.453125 2.15625 1.578125 2.15625 C 1.703125 2.15625 1.734375 2.09375 1.796875 1.953125 Z M 6.28125 -6.75 "
           id="path6433" />
      </symbol>
      <symbol
         overflow="visible"
         id="symbol1155">
        <path
           style="stroke:none;"
           d=""
           id="path6221" />
      </symbol>
      <symbol
         overflow="visible"
         id="symbol6336">
        <path
           style="stroke:none;"
           d="M 6.84375 -3.265625 C 7 -3.265625 7.1875 -3.265625 7.1875 -3.453125 C 7.1875 -3.65625 7 -3.65625 6.859375 -3.65625 L 0.890625 -3.65625 C 0.75 -3.65625 0.5625 -3.65625 0.5625 -3.453125 C 0.5625 -3.265625 0.75 -3.265625 0.890625 -3.265625 Z M 6.859375 -1.328125 C 7 -1.328125 7.1875 -1.328125 7.1875 -1.53125 C 7.1875 -1.71875 7 -1.71875 6.84375 -1.71875 L 0.890625 -1.71875 C 0.75 -1.71875 0.5625 -1.71875 0.5625 -1.53125 C 0.5625 -1.328125 0.75 -1.328125 0.890625 -1.328125 Z M 6.859375 -1.328125 "
           id="path4941" />
      </symbol>
      <symbol
         overflow="visible"
         id="symbol1752">
        <path
           style="stroke:none;"
           d="M 4.578125 -3.1875 C 4.578125 -3.984375 4.53125 -4.78125 4.1875 -5.515625 C 3.734375 -6.484375 2.90625 -6.640625 2.5 -6.640625 C 1.890625 -6.640625 1.171875 -6.375 0.75 -5.453125 C 0.4375 -4.765625 0.390625 -3.984375 0.390625 -3.1875 C 0.390625 -2.4375 0.421875 -1.546875 0.84375 -0.78125 C 1.265625 0.015625 2 0.21875 2.484375 0.21875 C 3.015625 0.21875 3.78125 0.015625 4.21875 -0.9375 C 4.53125 -1.625 4.578125 -2.40625 4.578125 -3.1875 Z M 2.484375 0 C 2.09375 0 1.5 -0.25 1.328125 -1.203125 C 1.21875 -1.796875 1.21875 -2.71875 1.21875 -3.3125 C 1.21875 -3.953125 1.21875 -4.609375 1.296875 -5.140625 C 1.484375 -6.328125 2.234375 -6.421875 2.484375 -6.421875 C 2.8125 -6.421875 3.46875 -6.234375 3.65625 -5.25 C 3.765625 -4.6875 3.765625 -3.9375 3.765625 -3.3125 C 3.765625 -2.5625 3.765625 -1.890625 3.65625 -1.25 C 3.5 -0.296875 2.9375 0 2.484375 0 Z M 2.484375 0 "
           id="path8657" />
      </symbol>
    </g>
    <g
       id="g7740">
      <symbol
         overflow="visible"
         id="symbol4744">
        <path
           style="stroke:none;"
           d=""
           id="path4796" />
      </symbol>
      <symbol
         overflow="visible"
         id="symbol4536">
        <path
           style="stroke:none;"
           d="M 0.515625 1.28125 C 0.484375 1.421875 0.46875 1.4375 0.453125 1.453125 C 0.40625 1.46875 0.296875 1.46875 0.203125 1.46875 C 0.03125 1.46875 -0.15625 1.46875 -0.15625 1.75 C -0.15625 1.859375 -0.0625 1.9375 0.046875 1.9375 C 0.328125 1.9375 0.65625 1.90625 0.953125 1.90625 C 1.3125 1.90625 1.6875 1.9375 2.03125 1.9375 C 2.09375 1.9375 2.28125 1.9375 2.28125 1.640625 C 2.28125 1.46875 2.125 1.46875 2.03125 1.46875 C 1.890625 1.46875 1.71875 1.46875 1.59375 1.453125 L 2.03125 -0.28125 C 2.171875 -0.140625 2.5 0.078125 3.03125 0.078125 C 4.765625 0.078125 5.84375 -1.5 5.84375 -2.859375 C 5.84375 -4.09375 4.921875 -4.5 4.09375 -4.5 C 3.390625 -4.5 2.875 -4.109375 2.71875 -3.96875 C 2.328125 -4.5 1.671875 -4.5 1.5625 -4.5 C 1.203125 -4.5 0.90625 -4.296875 0.703125 -3.9375 C 0.453125 -3.53125 0.3125 -3 0.3125 -2.953125 C 0.3125 -2.8125 0.46875 -2.8125 0.5625 -2.8125 C 0.671875 -2.8125 0.703125 -2.8125 0.75 -2.859375 C 0.78125 -2.875 0.78125 -2.90625 0.84375 -3.15625 C 1.03125 -3.953125 1.265625 -4.140625 1.515625 -4.140625 C 1.625 -4.140625 1.75 -4.109375 1.75 -3.78125 C 1.75 -3.625 1.71875 -3.484375 1.6875 -3.34375 Z M 2.8125 -3.5 C 3.09375 -3.84375 3.5625 -4.140625 4.046875 -4.140625 C 4.671875 -4.140625 4.71875 -3.609375 4.71875 -3.390625 C 4.71875 -2.875 4.375 -1.640625 4.21875 -1.25 C 3.90625 -0.53125 3.421875 -0.28125 3.015625 -0.28125 C 2.421875 -0.28125 2.1875 -0.75 2.1875 -0.859375 L 2.203125 -1 Z M 2.8125 -3.5 "
           id="path6695" />
      </symbol>
    </g>
  </defs>
  <g
     inkscape:label="Layer 1"
     inkscape:groupmode="layer"
     id="layer1">
    <g
       inkscape:label=""
       transform="matrix(2.7579489,0,0,2.7579489,-226.16346,-134.64366)"
       id="g961">
      <g
         id="g7306">
        <g
           style="fill:#000000;fill-opacity:1"
           id="g885">
          <use
             xlink:href="#symbol275"
             x="91.925003"
             y="81.962997"
             id="use2755"
             width="100%"
             height="100%" />
        </g>
        <g
           style="fill:#000000;fill-opacity:1"
           id="g3965">
          <use
             xlink:href="#symbol4713"
             x="95.938004"
             y="81.962997"
             id="use1376"
             width="100%"
             height="100%" />
        </g>
        <g
           style="fill:#000000;fill-opacity:1"
           id="g5365">
          <use
             xlink:href="#symbol1510"
             x="103.133"
             y="81.962997"
             id="use4822"
             width="100%"
             height="100%" />
        </g>
        <g
           style="fill:#000000;fill-opacity:1"
           id="g4923">
          <use
             xlink:href="#symbol7240"
             x="109.913"
             y="81.962997"
             id="use6684"
             width="100%"
             height="100%" />
        </g>
        <g
           style="fill:#000000;fill-opacity:1"
           id="g7981">
          <use
             xlink:href="#symbol4636"
             x="120.43151"
             y="81.962997"
             id="use9876"
             width="100%"
             height="100%" />
        </g>
      </g>
    </g>
    <g
       inkscape:label=""
       transform="matrix(2.7579489,0,0,2.7579489,-222.58518,-182.77037)"
       id="g1148">
      <g
         id="g30">
        <g
           style="fill:#000000;fill-opacity:1"
           id="g1848">
          <use
             xlink:href="#symbol1944"
             x="91.925003"
             y="81.962997"
             id="use7302"
             width="100%"
             height="100%" />
        </g>
        <g
           style="fill:#000000;fill-opacity:1"
           id="g2355">
          <use
             xlink:href="#symbol2740"
             x="95.938004"
             y="81.962997"
             id="use6920"
             width="100%"
             height="100%" />
        </g>
        <g
           style="fill:#000000;fill-opacity:1"
           id="g6811">
          <use
             xlink:href="#symbol6838"
             x="103.133"
             y="81.962997"
             id="use4964"
             width="100%"
             height="100%" />
        </g>
        <g
           style="fill:#000000;fill-opacity:1"
           id="g8669">
          <use
             xlink:href="#symbol9626"
             x="109.913"
             y="81.962997"
             id="use4517"
             width="100%"
             height="100%" />
        </g>
        <g
           style="fill:#000000;fill-opacity:1"
           id="g5331">
          <use
             xlink:href="#symbol1335"
             x="109.913"
             y="81.962997"
             id="use3060"
             width="100%"
             height="100%" />
        </g>
        <g
           style="fill:#000000;fill-opacity:1"
           id="g9565">
          <use
             xlink:href="#symbol5881"
             x="120.43151"
             y="81.962997"
             id="use4482"
             width="100%"
             height="100%" />
        </g>
      </g>
    </g>
    <g
       inkscape:label=""
       transform="matrix(2.774904,0,0,2.774904,-222.42126,-90.678495)"
       id="g1744">
      <g
         id="g3718">
        <g
           style="fill:#000000;fill-opacity:1"
           id="g3376">
          <use
             xlink:href="#symbol4222"
             x="91.925003"
             y="81.962997"
             id="use7553"
             width="100%"
             height="100%" />
        </g>
        <g
           style="fill:#000000;fill-opacity:1"
           id="g4000">
          <use
             xlink:href="#symbol8610"
             x="95.938004"
             y="81.962997"
             id="use9387"
             width="100%"
             height="100%" />
        </g>
        <g
           style="fill:#000000;fill-opacity:1"
           id="g1137">
          <use
             xlink:href="#symbol4531"
             x="101.925"
             y="81.962997"
             id="use9776"
             width="100%"
             height="100%" />
        </g>
        <g
           style="fill:#000000;fill-opacity:1"
           id="g9732">
          <use
             xlink:href="#symbol6749"
             x="108.705"
             y="81.962997"
             id="use4200"
             width="100%"
             height="100%" />
        </g>
        <g
           style="fill:#000000;fill-opacity:1"
           id="g1280">
          <use
             xlink:href="#symbol6336"
             x="108.705"
             y="81.962997"
             id="use7858"
             width="100%"
             height="100%" />
        </g>
        <g
           style="fill:#000000;fill-opacity:1"
           id="g8594">
          <use
             xlink:href="#symbol1752"
             x="119.22351"
             y="81.962997"
             id="use1889"
             width="100%"
             height="100%" />
        </g>
      </g>
    </g>
    <g
       inkscape:label=""
       transform="matrix(2.8147171,0,0,2.8147171,-217.28449,-59.40444)"
       id="g2237">
      <g
         id="g1572">
        <g
           style="fill:#000000;fill-opacity:1"
           id="g1817">
          <use
             xlink:href="#symbol4536"
             x="91.925003"
             y="81.962997"
             id="use7692"
             width="100%"
             height="100%" />
        </g>
      </g>
    </g>
  </g>
</svg>
