<?xml version="1.0" encoding="UTF-8" standalone="no"?>
<!-- Created with Inkscape (http://www.inkscape.org/) -->

<svg
   width="85.246109mm"
   height="27.705683mm"
   viewBox="0 0 85.24611 27.705684"
   version="1.1"
   id="svg2583"
   inkscape:version="1.1.2 (b8e25be833, 2022-02-05)"
   sodipodi:docname="pneq0.svg"
   xmlns:inkscape="http://www.inkscape.org/namespaces/inkscape"
   xmlns:sodipodi="http://sodipodi.sourceforge.net/DTD/sodipodi-0.dtd"
   xmlns="http://www.w3.org/2000/svg"
   xmlns:svg="http://www.w3.org/2000/svg">
  <sodipodi:namedview
     id="namedview2585"
     pagecolor="#ffffff"
     bordercolor="#666666"
     borderopacity="1.0"
     inkscape:pageshadow="2"
     inkscape:pageopacity="0.0"
     inkscape:pagecheckerboard="0"
     inkscape:document-units="mm"
     showgrid="false"
     inkscape:zoom="0.64052329"
     inkscape:cx="258.38249"
     inkscape:cy="42.933646"
     inkscape:window-width="2560"
     inkscape:window-height="1361"
     inkscape:window-x="-9"
     inkscape:window-y="-9"
     inkscape:window-maximized="1"
     inkscape:current-layer="layer1" />
  <defs
     id="defs2580" />
  <g
     inkscape:label="Layer 1"
     inkscape:groupmode="layer"
     id="layer1"
     transform="translate(-36.768881,-137.27802)">
    <g
       inkscape:label=""
       transform="matrix(2.774904,0,0,2.774904,-221.52266,-69.393006)"
       id="g1744">
      <g
         id="g3718">
        <g
           style="fill:#000000;fill-opacity:1"
           id="g3376">
          <g
             id="use7553"
             transform="translate(91.925003,81.962997)">
            <path
               style="stroke:none"
               d="m 1.15625,2.375 c 0,0.0625 0.046875,0.125 0.109375,0.125 h 2.40625 C 3.734375,2.5 3.78125,2.4375 3.78125,2.375 V 2.203125 c 0,-0.0625 -0.046875,-0.109375 -0.109375,-0.109375 h -0.875 v -9.171875 h 0.875 c 0.0625,0 0.109375,-0.046875 0.109375,-0.109375 v -0.171875 c 0,-0.0625 -0.046875,-0.125 -0.109375,-0.125 h -2.40625 c -0.0625,0 -0.109375,0.0625 -0.109375,0.125 z M 2.390625,-7.078125 V 2.09375 H 1.5625 v -9.171875 z m 0,0"
               id="path3791" />
          </g>
        </g>
        <g
           style="fill:#000000;fill-opacity:1"
           id="g4000">
          <g
             id="use9387"
             transform="translate(95.938004,81.962997)">
            <path
               style="stroke:none"
               d="M 0.515625,1.28125 C 0.484375,1.421875 0.46875,1.4375 0.453125,1.453125 0.40625,1.46875 0.296875,1.46875 0.203125,1.46875 c -0.171875,0 -0.359375,0 -0.359375,0.28125 0,0.109375 0.09375,0.1875 0.203125,0.1875 0.28125,0 0.609375,-0.03125 0.90625,-0.03125 0.359375,0 0.734375,0.03125 1.078125,0.03125 0.0625,0 0.25,0 0.25,-0.296875 0,-0.171875 -0.15625,-0.171875 -0.25,-0.171875 -0.140625,0 -0.3125,0 -0.4375,-0.015625 l 0.4375,-1.734375 c 0.140625,0.140625 0.46875,0.359375 1,0.359375 1.734375,0 2.8125,-1.578125 2.8125,-2.9375 C 5.84375,-4.09375 4.921875,-4.5 4.09375,-4.5 3.390625,-4.5 2.875,-4.109375 2.71875,-3.96875 2.328125,-4.5 1.671875,-4.5 1.5625,-4.5 1.203125,-4.5 0.90625,-4.296875 0.703125,-3.9375 0.453125,-3.53125 0.3125,-3 0.3125,-2.953125 c 0,0.140625 0.15625,0.140625 0.25,0.140625 0.109375,0 0.140625,0 0.1875,-0.046875 C 0.78125,-2.875 0.78125,-2.90625 0.84375,-3.15625 c 0.1875,-0.796875 0.421875,-0.984375 0.671875,-0.984375 0.109375,0 0.234375,0.03125 0.234375,0.359375 0,0.15625 -0.03125,0.296875 -0.0625,0.4375 z M 2.8125,-3.5 c 0.28125,-0.34375 0.75,-0.640625 1.234375,-0.640625 0.625,0 0.671875,0.53125 0.671875,0.75 0,0.515625 -0.34375,1.75 -0.5,2.140625 -0.3125,0.71875 -0.796875,0.96875 -1.203125,0.96875 C 2.421875,-0.28125 2.1875,-0.75 2.1875,-0.859375 L 2.203125,-1 Z m 0,0"
               id="path3807" />
          </g>
        </g>
        <g
           style="fill:#000000;fill-opacity:1"
           id="g1137">
          <g
             id="use9776"
             transform="translate(101.925,81.962997)">
            <path
               style="stroke:none"
               d="M 1.59375,2.09375 V -7.078125 H 2.4375 V 2.09375 Z m 1.25,0.28125 v -9.734375 c 0,-0.0625 -0.046875,-0.125 -0.109375,-0.125 H 0.34375 c -0.046875,0 -0.109375,0.0625 -0.109375,0.125 V -7.1875 c 0,0.0625 0.0625,0.109375 0.109375,0.109375 H 1.203125 V 2.09375 H 0.34375 c -0.046875,0 -0.109375,0.046875 -0.109375,0.109375 V 2.375 c 0,0.0625 0.0625,0.125 0.109375,0.125 h 2.390625 c 0.0625,0 0.109375,-0.0625 0.109375,-0.125 z m 0,0"
               id="path3811" />
          </g>
        </g>
        <g
           style="fill:#000000;fill-opacity:1"
           id="g9732">
          <g
             id="use4200"
             transform="translate(108.705,81.962997)">
            <path
               style="stroke:none"
               d="m 6.28125,-6.75 c 0.078125,-0.140625 0.078125,-0.15625 0.078125,-0.1875 0,-0.078125 -0.0625,-0.203125 -0.203125,-0.203125 -0.109375,0 -0.140625,0.0625 -0.21875,0.203125 L 1.46875,1.765625 c -0.078125,0.140625 -0.078125,0.15625 -0.078125,0.1875 0,0.078125 0.0625,0.203125 0.1875,0.203125 0.125,0 0.15625,-0.0625 0.21875,-0.203125 z m 0,0"
               id="path3803" />
          </g>
        </g>
        <g
           style="fill:#000000;fill-opacity:1"
           id="g1280">
          <g
             id="use7858"
             transform="translate(108.705,81.962997)">
            <path
               style="stroke:none"
               d="m 6.84375,-3.265625 c 0.15625,0 0.34375,0 0.34375,-0.1875 C 7.1875,-3.65625 7,-3.65625 6.859375,-3.65625 h -5.96875 c -0.140625,0 -0.328125,0 -0.328125,0.203125 0,0.1875 0.1875,0.1875 0.328125,0.1875 z m 0.015625,1.9375 c 0.140625,0 0.328125,0 0.328125,-0.203125 0,-0.1875 -0.1875,-0.1875 -0.34375,-0.1875 H 0.890625 c -0.140625,0 -0.328125,0 -0.328125,0.1875 0,0.203125 0.1875,0.203125 0.328125,0.203125 z m 0,0"
               id="path3799" />
          </g>
        </g>
        <g
           style="fill:#000000;fill-opacity:1"
           id="g8594">
          <g
             id="use1889"
             transform="translate(119.22351,81.962997)">
            <path
               style="stroke:none"
               d="m 4.578125,-3.1875 c 0,-0.796875 -0.046875,-1.59375 -0.390625,-2.328125 -0.453125,-0.96875 -1.28125,-1.125 -1.6875,-1.125 -0.609375,0 -1.328125,0.265625 -1.75,1.1875 -0.3125,0.6875 -0.359375,1.46875 -0.359375,2.265625 0,0.75 0.03125,1.640625 0.453125,2.40625 0.421875,0.796875 1.15625,1 1.640625,1 0.53125,0 1.296875,-0.203125 1.734375,-1.15625 0.3125,-0.6875 0.359375,-1.46875 0.359375,-2.25 z M 2.484375,0 C 2.09375,0 1.5,-0.25 1.328125,-1.203125 1.21875,-1.796875 1.21875,-2.71875 1.21875,-3.3125 c 0,-0.640625 0,-1.296875 0.078125,-1.828125 0.1875,-1.1875 0.9375,-1.28125 1.1875,-1.28125 0.328125,0 0.984375,0.1875 1.171875,1.171875 0.109375,0.5625 0.109375,1.3125 0.109375,1.9375 0,0.75 0,1.421875 -0.109375,2.0625 C 3.5,-0.296875 2.9375,0 2.484375,0 Z m 0,0"
               id="path3795" />
          </g>
        </g>
      </g>
    </g>
  </g>
</svg>
